<?xml version="1.0" standalone="no"?>
<!DOCTYPE svg>
<svg version="1.0" xmlns="http://www.w3.org/2000/svg"
 width="256.000000pt" height="256.000000pt" viewBox="0 0 256.000000 256.000000"
 preserveAspectRatio="xMidYMid meet">

<g transform="translate(0.000000,256.000000) scale(0.100000,-0.100000)"
fill="#000000" stroke="none">
<path d="M80 1920 c0 -11 4 -20 10 -20 5 0 13 -18 16 -40 4 -22 10 -40 15 -40
5 0 9 -18 9 -40 0 -29 4 -40 15 -40 11 0 15 -11 15 -40 0 -22 5 -40 10 -40 6
0 10 -14 10 -31 0 -17 7 -37 15 -45 8 -9 15 -29 15 -45 0 -16 5 -29 10 -29 6
0 10 -18 10 -40 0 -29 4 -40 15 -40 11 0 15 -11 15 -40 0 -22 5 -40 10 -40 6
0 10 -10 10 -22 1 -13 7 -34 15 -48 8 -14 14 -37 15 -52 0 -16 4 -28 10 -28 5
0 13 -18 16 -40 4 -22 10 -40 15 -40 5 0 9 -20 9 -44 0 -30 5 -46 15 -50 9 -3
15 -19 15 -41 0 -19 5 -35 10 -35 6 0 10 -18 10 -40 0 -29 4 -40 15 -40 10 0
15 -11 15 -35 0 -19 5 -35 10 -35 6 0 10 -18 10 -40 0 -29 4 -40 15 -40 11 0
15 -11 15 -40 0 -22 4 -40 10 -40 5 0 12 -17 16 -37 11 -57 22 -63 114 -63 85
0 110 10 110 46 0 26 31 104 41 104 5 0 9 18 9 40 0 29 4 40 15 40 11 0 15 11
15 40 0 22 5 40 10 40 6 0 10 11 10 24 0 14 7 31 15 40 8 8 15 28 15 45 0 16
5 33 10 36 6 3 10 17 10 31 0 15 6 24 15 24 11 0 15 11 15 40 0 22 5 40 10 40
6 0 10 11 10 24 0 14 7 31 15 40 8 8 15 31 15 50 0 20 4 36 10 36 5 0 12 16
16 35 3 19 10 35 15 35 5 0 9 14 9 30 0 20 5 30 15 30 11 0 15 11 15 40 0 22
5 40 10 40 6 0 10 16 10 35 0 24 5 35 15 35 11 0 15 11 15 40 0 22 5 40 10 40
6 0 10 11 10 24 0 14 7 31 15 40 8 8 15 26 15 40 0 14 4 26 9 26 5 0 11 18 15
40 3 22 11 40 16 40 6 0 10 16 10 35 0 19 5 35 10 35 6 0 10 5 10 10 0 6 -35
10 -85 10 -78 0 -85 -2 -85 -20 0 -11 -4 -20 -10 -20 -5 0 -10 -13 -10 -30 0
-20 -5 -30 -15 -30 -11 0 -15 -11 -15 -40 0 -22 -4 -40 -10 -40 -5 0 -10 -16
-10 -35 0 -24 -5 -35 -15 -35 -11 0 -15 -11 -15 -40 0 -22 -4 -40 -10 -40 -5
0 -13 -18 -16 -40 -4 -22 -10 -40 -15 -40 -5 0 -9 -16 -9 -35 0 -24 -5 -35
-15 -35 -11 0 -15 -11 -15 -40 0 -22 -4 -40 -10 -40 -5 0 -10 -11 -10 -24 0
-14 -7 -31 -15 -40 -8 -8 -15 -31 -15 -50 0 -20 -4 -36 -9 -36 -5 0 -11 -18
-15 -40 -3 -22 -11 -40 -16 -40 -6 0 -10 -16 -10 -35 0 -19 -4 -35 -10 -35 -5
0 -10 -13 -10 -29 0 -16 -7 -36 -15 -45 -8 -8 -15 -30 -15 -49 0 -20 -5 -37
-11 -39 -6 -2 -13 -25 -16 -51 -3 -26 -10 -47 -14 -47 -5 0 -9 -18 -9 -40 0
-29 -4 -40 -15 -40 -8 0 -15 -7 -15 -16 0 -35 -25 -4 -28 34 -2 23 -7 42 -11
42 -5 0 -11 21 -14 47 -3 26 -10 49 -16 51 -6 2 -11 24 -11 49 0 26 -6 51 -15
59 -8 9 -15 29 -15 45 0 16 -4 29 -10 29 -5 0 -10 16 -10 36 0 19 -7 42 -15
50 -8 9 -15 26 -15 40 0 13 -4 24 -10 24 -5 0 -10 23 -10 50 0 38 -4 50 -15
50 -11 0 -15 11 -15 40 0 22 -4 40 -10 40 -5 0 -10 15 -10 34 0 21 -6 36 -15
40 -9 3 -15 19 -15 41 0 19 -3 35 -8 35 -7 0 -26 61 -39 125 -3 17 -10 33 -15
36 -5 3 -12 25 -15 48 -3 22 -10 41 -14 41 -5 0 -9 18 -9 39 0 25 -5 41 -15
45 -8 3 -15 15 -15 26 0 19 -6 20 -85 20 -78 0 -85 -2 -85 -20z"/>
<path d="M1920 1930 c0 -5 -22 -10 -49 -10 -34 0 -51 -4 -55 -15 -3 -9 -19
-15 -41 -15 -19 0 -35 -4 -35 -10 0 -5 -11 -10 -25 -10 -16 0 -25 -6 -25 -15
0 -8 -9 -15 -20 -15 -12 0 -31 -11 -44 -25 -13 -14 -29 -25 -35 -25 -7 0 -22
-11 -35 -25 -13 -14 -28 -25 -35 -25 -6 0 -11 -5 -11 -10 0 -10 -8 -22 -37
-55 -7 -7 -13 -18 -13 -24 0 -6 -4 -11 -9 -11 -5 0 -12 -11 -15 -25 -4 -14
-10 -25 -15 -25 -4 0 -16 -25 -26 -55 -11 -30 -23 -55 -27 -55 -4 0 -8 -19 -8
-43 0 -24 -6 -49 -12 -55 -21 -21 -24 -259 -4 -306 9 -21 16 -54 16 -72 0 -19
4 -34 10 -34 5 0 12 -16 16 -35 3 -19 10 -35 15 -35 5 0 9 -11 9 -25 0 -14 4
-25 9 -25 5 0 12 -11 15 -25 4 -14 11 -25 16 -25 6 0 10 -4 10 -10 0 -14 105
-120 118 -120 7 0 12 -7 12 -15 0 -8 7 -15 15 -15 8 0 15 -4 15 -10 0 -5 11
-10 25 -10 16 0 25 -6 25 -15 0 -10 11 -15 35 -15 19 0 35 -4 35 -10 0 -5 11
-10 24 -10 14 0 31 -7 40 -15 10 -11 36 -15 90 -15 44 0 76 -4 76 -10 0 -6 33
-10 80 -10 47 0 80 4 80 10 0 6 35 10 84 10 54 0 86 4 88 11 2 6 27 14 56 17
29 2 52 8 52 13 0 5 16 9 35 9 l35 0 0 330 0 330 -225 0 -225 0 0 -60 0 -60
140 0 140 0 0 -220 c0 -183 -2 -220 -14 -220 -8 0 -16 -6 -18 -12 -4 -10 -54
-14 -195 -16 -162 -3 -193 -1 -206 12 -9 9 -27 16 -41 16 -14 0 -26 5 -26 10
0 6 -9 10 -20 10 -11 0 -23 7 -26 15 -4 8 -15 15 -26 15 -21 0 -48 22 -48 39
0 6 -5 11 -11 11 -14 0 -69 55 -69 69 0 6 -4 11 -10 11 -5 0 -12 11 -16 25 -3
14 -10 25 -15 25 -5 0 -9 11 -9 24 0 13 -7 26 -15 30 -9 3 -15 19 -15 41 0 19
-4 35 -10 35 -6 0 -10 70 -10 190 0 120 4 190 10 190 6 0 10 11 10 25 0 14 7
28 15 31 8 4 15 17 15 30 0 13 5 24 10 24 6 0 10 9 10 20 0 11 7 23 15 26 8 4
15 10 15 16 0 13 26 38 39 38 6 0 11 7 11 15 0 8 5 15 11 15 14 0 39 25 39 39
0 6 7 11 15 11 8 0 15 5 15 10 0 6 11 10 25 10 16 0 25 6 25 15 0 10 10 15 30
15 17 0 30 4 30 9 0 26 329 54 375 32 11 -5 38 -12 60 -15 22 -3 41 -10 43
-16 2 -5 18 -10 37 -10 31 0 33 2 38 47 3 26 10 49 16 51 21 7 11 22 -14 22
-16 0 -25 6 -25 15 0 11 -12 15 -50 15 -27 0 -50 5 -50 10 0 6 -67 10 -180 10
-113 0 -180 -4 -180 -10z"/>
</g>
</svg>
